<mxfile host="Electron" modified="2024-03-10T20:15:02.476Z" agent="Mozilla/5.0 (Macintosh; Intel Mac OS X 10_15_7) AppleWebKit/537.36 (KHTML, like Gecko) draw.io/24.0.4 Chrome/120.0.6099.109 Electron/28.1.0 Safari/537.36" etag="W1X0w8gPJy1vF7AIbamS" version="24.0.4" type="device" pages="2">
  <diagram name="main" id="m0zTKrYATkNEm8Ja8VeW">
    <mxGraphModel dx="1005" dy="724" grid="1" gridSize="10" guides="1" tooltips="1" connect="1" arrows="1" fold="1" page="1" pageScale="1" pageWidth="850" pageHeight="1100" math="0" shadow="0">
      <root>
        <mxCell id="0" />
        <mxCell id="1" parent="0" />
        <mxCell id="kChx-vSpJG1CHjQ2RL-N-1" style="edgeStyle=orthogonalEdgeStyle;rounded=1;orthogonalLoop=1;jettySize=auto;html=1;exitX=1;exitY=0.5;exitDx=0;exitDy=0;exitPerimeter=0;entryX=0;entryY=0.5;entryDx=0;entryDy=0;entryPerimeter=0;strokeWidth=2;" parent="1" source="2eRoQm3OtpNdvkozuS3X-1" target="kChx-vSpJG1CHjQ2RL-N-88" edge="1">
          <mxGeometry relative="1" as="geometry" />
        </mxCell>
        <mxCell id="kChx-vSpJG1CHjQ2RL-N-2" style="edgeStyle=orthogonalEdgeStyle;rounded=1;orthogonalLoop=1;jettySize=auto;html=1;exitX=1;exitY=0.5;exitDx=0;exitDy=0;exitPerimeter=0;entryX=0;entryY=0.5;entryDx=0;entryDy=0;entryPerimeter=0;strokeWidth=2;" parent="1" source="2eRoQm3OtpNdvkozuS3X-1" target="kChx-vSpJG1CHjQ2RL-N-67" edge="1">
          <mxGeometry relative="1" as="geometry" />
        </mxCell>
        <mxCell id="kChx-vSpJG1CHjQ2RL-N-11" style="edgeStyle=orthogonalEdgeStyle;rounded=1;orthogonalLoop=1;jettySize=auto;html=1;exitX=1;exitY=0.5;exitDx=0;exitDy=0;exitPerimeter=0;entryX=0;entryY=0.5;entryDx=0;entryDy=0;entryPerimeter=0;strokeWidth=2;" parent="1" source="kChx-vSpJG1CHjQ2RL-N-68" target="2eRoQm3OtpNdvkozuS3X-3" edge="1">
          <mxGeometry relative="1" as="geometry" />
        </mxCell>
        <mxCell id="kChx-vSpJG1CHjQ2RL-N-12" style="edgeStyle=orthogonalEdgeStyle;rounded=1;orthogonalLoop=1;jettySize=auto;html=1;exitX=1;exitY=0.5;exitDx=0;exitDy=0;exitPerimeter=0;entryX=0;entryY=0.5;entryDx=0;entryDy=0;entryPerimeter=0;strokeWidth=2;" parent="1" source="kChx-vSpJG1CHjQ2RL-N-89" target="2eRoQm3OtpNdvkozuS3X-3" edge="1">
          <mxGeometry relative="1" as="geometry" />
        </mxCell>
        <mxCell id="kChx-vSpJG1CHjQ2RL-N-13" style="edgeStyle=orthogonalEdgeStyle;rounded=1;orthogonalLoop=1;jettySize=auto;html=1;exitX=1;exitY=0.5;exitDx=0;exitDy=0;exitPerimeter=0;entryX=0;entryY=0.5;entryDx=0;entryDy=0;entryPerimeter=0;strokeWidth=2;" parent="1" source="kChx-vSpJG1CHjQ2RL-N-14" target="kChx-vSpJG1CHjQ2RL-N-44" edge="1">
          <mxGeometry relative="1" as="geometry" />
        </mxCell>
        <mxCell id="kChx-vSpJG1CHjQ2RL-N-14" value="" style="rhombus;whiteSpace=wrap;html=1;rounded=1;fontStyle=1;glass=0;sketch=0;fontSize=12;points=[[0,0.5,0,0,0],[0.5,0,0,0,0],[0.5,1,0,0,0],[1,0.5,0,0,0]];shadow=1;" parent="1" vertex="1">
          <mxGeometry x="60" y="210.5" width="40" height="40" as="geometry" />
        </mxCell>
        <mxCell id="kChx-vSpJG1CHjQ2RL-N-22" style="edgeStyle=orthogonalEdgeStyle;rounded=1;orthogonalLoop=1;jettySize=auto;html=1;exitX=1;exitY=0.5;exitDx=0;exitDy=0;exitPerimeter=0;entryX=0;entryY=0.5;entryDx=0;entryDy=0;entryPerimeter=0;strokeWidth=2;" parent="1" source="kChx-vSpJG1CHjQ2RL-N-75" target="2eRoQm3OtpNdvkozuS3X-2" edge="1">
          <mxGeometry relative="1" as="geometry" />
        </mxCell>
        <mxCell id="kChx-vSpJG1CHjQ2RL-N-23" style="edgeStyle=orthogonalEdgeStyle;rounded=1;orthogonalLoop=1;jettySize=auto;html=1;exitX=1;exitY=0.5;exitDx=0;exitDy=0;exitPerimeter=0;entryX=0;entryY=0.5;entryDx=0;entryDy=0;entryPerimeter=0;strokeWidth=2;" parent="1" source="kChx-vSpJG1CHjQ2RL-N-45" target="kChx-vSpJG1CHjQ2RL-N-74" edge="1">
          <mxGeometry relative="1" as="geometry" />
        </mxCell>
        <mxCell id="kChx-vSpJG1CHjQ2RL-N-24" value="&lt;b&gt;&lt;font style=&quot;font-size: 24px;&quot;&gt;Sequential Routing&lt;/font&gt;&lt;/b&gt;" style="text;html=1;align=center;verticalAlign=middle;resizable=0;points=[];autosize=1;strokeColor=none;fillColor=none;" parent="1" vertex="1">
          <mxGeometry x="11" y="81" width="237" height="41" as="geometry" />
        </mxCell>
        <mxCell id="kChx-vSpJG1CHjQ2RL-N-25" value="&lt;b&gt;&lt;font style=&quot;font-size: 24px;&quot;&gt;Parallel Routing&lt;/font&gt;&lt;/b&gt;" style="text;html=1;align=center;verticalAlign=middle;resizable=0;points=[];autosize=1;strokeColor=none;fillColor=none;strokeWidth=2;" parent="1" vertex="1">
          <mxGeometry x="11" y="424" width="201" height="41" as="geometry" />
        </mxCell>
        <mxCell id="kChx-vSpJG1CHjQ2RL-N-43" value="Echo" style="rounded=1;whiteSpace=wrap;html=1;sketch=0;container=1;recursiveResize=0;verticalAlign=top;arcSize=6;fontStyle=1;autosize=0;points=[];absoluteArcSize=1;shadow=1;strokeColor=#6c8ebf;fillColor=#dae8fc;fontFamily=Helvetica;fontSize=11;gradientColor=#0050EF;fontColor=default;" parent="1" vertex="1">
          <mxGeometry x="172" y="190.5" width="138" height="100" as="geometry">
            <mxRectangle x="-98" y="-1230" width="99" height="26" as="alternateBounds" />
          </mxGeometry>
        </mxCell>
        <mxCell id="kChx-vSpJG1CHjQ2RL-N-44" value="" style="rounded=1;whiteSpace=wrap;html=1;sketch=0;points=[[0,0.5,0,0,0],[1,0.5,0,0,0]];arcSize=50;fontFamily=Helvetica;fontSize=11;fontColor=default;" parent="kChx-vSpJG1CHjQ2RL-N-43" vertex="1">
          <mxGeometry x="-16.75" y="27.5" width="36.75" height="25" as="geometry" />
        </mxCell>
        <mxCell id="kChx-vSpJG1CHjQ2RL-N-45" value="" style="rounded=1;whiteSpace=wrap;html=1;sketch=0;points=[[0,0.5,0,0,0],[1,0.5,0,0,0]];fillColor=#1ba1e2;fontColor=#ffffff;strokeColor=#006EAF;arcSize=50;fontFamily=Helvetica;fontSize=11;" parent="kChx-vSpJG1CHjQ2RL-N-43" vertex="1">
          <mxGeometry x="120" y="27.5" width="36" height="25" as="geometry" />
        </mxCell>
        <mxCell id="kChx-vSpJG1CHjQ2RL-N-66" value="Echo" style="rounded=1;whiteSpace=wrap;html=1;sketch=0;container=1;recursiveResize=0;verticalAlign=top;arcSize=6;fontStyle=1;autosize=0;points=[];absoluteArcSize=1;shadow=1;strokeColor=#6c8ebf;fillColor=#dae8fc;fontFamily=Helvetica;fontSize=11;gradientColor=#0050EF;fontColor=default;" parent="1" vertex="1">
          <mxGeometry x="260" y="560" width="140" height="100" as="geometry">
            <mxRectangle x="-98" y="-1230" width="99" height="26" as="alternateBounds" />
          </mxGeometry>
        </mxCell>
        <mxCell id="kChx-vSpJG1CHjQ2RL-N-67" value="" style="rounded=1;whiteSpace=wrap;html=1;sketch=0;points=[[0,0.5,0,0,0],[1,0.5,0,0,0]];arcSize=50;fontFamily=Helvetica;fontSize=11;fontColor=default;" parent="kChx-vSpJG1CHjQ2RL-N-66" vertex="1">
          <mxGeometry x="-16.75" y="27.5" width="36.75" height="25" as="geometry" />
        </mxCell>
        <mxCell id="kChx-vSpJG1CHjQ2RL-N-68" value="" style="rounded=1;whiteSpace=wrap;html=1;sketch=0;points=[[0,0.5,0,0,0],[1,0.5,0,0,0]];fillColor=#1ba1e2;fontColor=#ffffff;strokeColor=#006EAF;arcSize=50;fontFamily=Helvetica;fontSize=11;" parent="kChx-vSpJG1CHjQ2RL-N-66" vertex="1">
          <mxGeometry x="120" y="27.5" width="36" height="25" as="geometry" />
        </mxCell>
        <mxCell id="kChx-vSpJG1CHjQ2RL-N-73" value="Echo" style="rounded=1;whiteSpace=wrap;html=1;sketch=0;container=1;recursiveResize=0;verticalAlign=top;arcSize=6;fontStyle=1;autosize=0;points=[];absoluteArcSize=1;shadow=1;strokeColor=#6c8ebf;fillColor=#dae8fc;fontFamily=Helvetica;fontSize=11;gradientColor=#0050EF;fontColor=default;" parent="1" vertex="1">
          <mxGeometry x="390" y="190.5" width="140" height="100" as="geometry">
            <mxRectangle x="-98" y="-1230" width="99" height="26" as="alternateBounds" />
          </mxGeometry>
        </mxCell>
        <mxCell id="kChx-vSpJG1CHjQ2RL-N-74" value="" style="rounded=1;whiteSpace=wrap;html=1;sketch=0;points=[[0,0.5,0,0,0],[1,0.5,0,0,0]];arcSize=50;fontFamily=Helvetica;fontSize=11;fontColor=default;" parent="kChx-vSpJG1CHjQ2RL-N-73" vertex="1">
          <mxGeometry x="-16.75" y="27.5" width="36.75" height="25" as="geometry" />
        </mxCell>
        <mxCell id="kChx-vSpJG1CHjQ2RL-N-75" value="" style="rounded=1;whiteSpace=wrap;html=1;sketch=0;points=[[0,0.5,0,0,0],[1,0.5,0,0,0]];fillColor=#1ba1e2;fontColor=#ffffff;strokeColor=#006EAF;arcSize=50;fontFamily=Helvetica;fontSize=11;" parent="kChx-vSpJG1CHjQ2RL-N-73" vertex="1">
          <mxGeometry x="120" y="27.5" width="36" height="25" as="geometry" />
        </mxCell>
        <mxCell id="kChx-vSpJG1CHjQ2RL-N-87" value="Echo" style="rounded=1;whiteSpace=wrap;html=1;sketch=0;container=1;recursiveResize=0;verticalAlign=top;arcSize=6;fontStyle=1;autosize=0;points=[];absoluteArcSize=1;shadow=1;strokeColor=#6c8ebf;fillColor=#dae8fc;fontFamily=Helvetica;fontSize=11;gradientColor=#0050EF;fontColor=default;" parent="1" vertex="1">
          <mxGeometry x="260" y="721" width="140" height="100" as="geometry">
            <mxRectangle x="-98" y="-1230" width="99" height="26" as="alternateBounds" />
          </mxGeometry>
        </mxCell>
        <mxCell id="kChx-vSpJG1CHjQ2RL-N-88" value="" style="rounded=1;whiteSpace=wrap;html=1;sketch=0;points=[[0,0.5,0,0,0],[1,0.5,0,0,0]];arcSize=50;fontFamily=Helvetica;fontSize=11;fontColor=default;" parent="kChx-vSpJG1CHjQ2RL-N-87" vertex="1">
          <mxGeometry x="-16.75" y="27.5" width="36.75" height="25" as="geometry" />
        </mxCell>
        <mxCell id="kChx-vSpJG1CHjQ2RL-N-89" value="" style="rounded=1;whiteSpace=wrap;html=1;sketch=0;points=[[0,0.5,0,0,0],[1,0.5,0,0,0]];fillColor=#1ba1e2;fontColor=#ffffff;strokeColor=#006EAF;arcSize=50;fontFamily=Helvetica;fontSize=11;" parent="kChx-vSpJG1CHjQ2RL-N-87" vertex="1">
          <mxGeometry x="120" y="27.5" width="36" height="25" as="geometry" />
        </mxCell>
        <mxCell id="2eRoQm3OtpNdvkozuS3X-1" value="" style="rhombus;whiteSpace=wrap;html=1;rounded=1;fontStyle=1;glass=0;sketch=0;fontSize=12;points=[[0,0.5,0,0,0],[0.5,0,0,0,0],[0.5,1,0,0,0],[1,0.5,0,0,0]];shadow=1;" parent="1" vertex="1">
          <mxGeometry x="60" y="661" width="40" height="40" as="geometry" />
        </mxCell>
        <mxCell id="2eRoQm3OtpNdvkozuS3X-2" value="" style="rhombus;whiteSpace=wrap;html=1;rounded=1;fontStyle=1;glass=0;sketch=0;fontSize=12;points=[[0,0.5,0,0,0],[0.5,0,0,0,0],[0.5,1,0,0,0],[1,0.5,0,0,0]];shadow=1;fillColor=#0050ef;fontColor=#ffffff;strokeColor=#001DBC;" parent="1" vertex="1">
          <mxGeometry x="621" y="210.5" width="40" height="40" as="geometry" />
        </mxCell>
        <mxCell id="2eRoQm3OtpNdvkozuS3X-3" value="" style="rhombus;whiteSpace=wrap;html=1;rounded=1;fontStyle=1;glass=0;sketch=0;fontSize=12;points=[[0,0.5,0,0,0],[0.5,0,0,0,0],[0.5,1,0,0,0],[1,0.5,0,0,0]];shadow=1;fillColor=#0050ef;fontColor=#ffffff;strokeColor=#001DBC;" parent="1" vertex="1">
          <mxGeometry x="540" y="660" width="40" height="40" as="geometry" />
        </mxCell>
      </root>
    </mxGraphModel>
  </diagram>
  <diagram id="tdX2_95LEIDNDVLNdQ2E" name="...">
    <mxGraphModel dx="1114" dy="670" grid="1" gridSize="10" guides="1" tooltips="1" connect="1" arrows="1" fold="1" page="1" pageScale="1" pageWidth="850" pageHeight="1100" math="0" shadow="0">
      <root>
        <mxCell id="0" />
        <mxCell id="1" parent="0" />
      </root>
    </mxGraphModel>
  </diagram>
</mxfile>
